<svg width="150" height="44" viewBox="0 0 150 44" fill="none" xmlns="http://www.w3.org/2000/svg">
<path d="M56.17 34.4354H51.7V13.0154H63.97V16.7354H56.17V22.2554H63.43V25.9754H56.17V34.4354ZM87.6048 23.6954C87.6048 25.9154 87.2348 27.8554 86.4948 29.5154C85.7748 31.1554 84.6648 32.4354 83.1648 33.3554C81.6648 34.2754 79.7448 34.7354 77.4048 34.7354C75.0848 34.7354 73.1648 34.2754 71.6448 33.3554C70.1448 32.4354 69.0248 31.1454 68.2848 29.4854C67.5648 27.8254 67.2048 25.8854 67.2048 23.6654C67.2048 21.4454 67.5648 19.5154 68.2848 17.8754C69.0248 16.2354 70.1448 14.9654 71.6448 14.0654C73.1648 13.1454 75.0948 12.6854 77.4348 12.6854C79.7548 12.6854 81.6648 13.1454 83.1648 14.0654C84.6648 14.9654 85.7748 16.2454 86.4948 17.9054C87.2348 19.5454 87.6048 21.4754 87.6048 23.6954ZM71.9748 23.6954C71.9748 25.9354 72.4048 27.7054 73.2648 29.0054C74.1248 30.2854 75.5048 30.9254 77.4048 30.9254C79.3448 30.9254 80.7348 30.2854 81.5748 29.0054C82.4148 27.7054 82.8348 25.9354 82.8348 23.6954C82.8348 21.4354 82.4148 19.6654 81.5748 18.3854C80.7348 17.1054 79.3548 16.4654 77.4348 16.4654C75.5148 16.4654 74.1248 17.1054 73.2648 18.3854C72.4048 19.6654 71.9748 21.4354 71.9748 23.6954ZM108.766 34.4354H103.576L98.5959 26.3354L93.6159 34.4354H88.7559L95.8659 23.3954L89.2059 13.0154H94.2159L98.8359 20.7254L103.366 13.0154H108.256L101.536 23.6354L108.766 34.4354Z" fill="#7653FC"/>
<path d="M119.352 32.8354C119.72 32.8354 120.056 32.8114 120.36 32.7634C120.68 32.7154 120.968 32.6434 121.224 32.5474V33.3394C120.968 33.4354 120.68 33.5154 120.36 33.5794C120.04 33.6434 119.68 33.6754 119.28 33.6754C118.176 33.6754 117.384 33.3634 116.904 32.7394C116.424 32.1154 116.184 31.2034 116.184 30.0034V21.5314H114.264V20.9074L116.184 20.6914L116.472 17.6194H117.12V20.7154H121.152V21.5314H117.12V29.9314C117.12 30.8754 117.28 31.5954 117.6 32.0914C117.936 32.5874 118.52 32.8354 119.352 32.8354ZM134.403 27.0754C134.403 28.3554 134.195 29.4914 133.779 30.4834C133.379 31.4754 132.763 32.2594 131.931 32.8354C131.099 33.3954 130.059 33.6754 128.811 33.6754C127.611 33.6754 126.595 33.3954 125.763 32.8354C124.947 32.2754 124.323 31.4994 123.891 30.5074C123.475 29.5154 123.267 28.3714 123.267 27.0754C123.267 25.0434 123.763 23.4354 124.755 22.2514C125.763 21.0674 127.155 20.4754 128.931 20.4754C130.195 20.4754 131.227 20.7634 132.027 21.3394C132.827 21.9154 133.419 22.6994 133.803 23.6914C134.203 24.6834 134.403 25.8114 134.403 27.0754ZM124.227 27.0754C124.227 28.7874 124.603 30.1794 125.355 31.2514C126.107 32.3074 127.259 32.8354 128.811 32.8354C129.883 32.8354 130.763 32.5954 131.451 32.1154C132.139 31.6194 132.643 30.9394 132.963 30.0754C133.283 29.2114 133.443 28.2114 133.443 27.0754C133.443 25.9874 133.291 25.0114 132.987 24.1474C132.683 23.2834 132.195 22.5954 131.523 22.0834C130.867 21.5714 130.003 21.3154 128.931 21.3154C127.411 21.3154 126.243 21.8274 125.427 22.8514C124.627 23.8594 124.227 25.2674 124.227 27.0754ZM143.452 20.4754C145.116 20.4754 146.388 21.0274 147.268 22.1314C148.164 23.2354 148.612 24.8514 148.612 26.9794C148.612 29.1234 148.14 30.7794 147.196 31.9474C146.252 33.0994 144.94 33.6754 143.26 33.6754C142.06 33.6754 141.1 33.4034 140.38 32.8594C139.676 32.3154 139.18 31.6594 138.892 30.8914H138.844C138.86 31.3714 138.868 31.8674 138.868 32.3794C138.884 32.8754 138.892 33.3554 138.892 33.8194V39.0514H137.98V20.7154H138.748L138.844 23.4994H138.892C139.084 22.9714 139.38 22.4834 139.78 22.0354C140.18 21.5714 140.684 21.1954 141.292 20.9074C141.9 20.6194 142.62 20.4754 143.452 20.4754ZM143.38 21.3154C141.892 21.3154 140.772 21.8114 140.02 22.8034C139.284 23.7794 138.908 25.1714 138.892 26.9794V27.1234C138.892 29.0594 139.268 30.4994 140.02 31.4434C140.772 32.3714 141.836 32.8354 143.212 32.8354C144.62 32.8354 145.708 32.3314 146.476 31.3234C147.26 30.3154 147.652 28.8674 147.652 26.9794C147.652 23.2034 146.228 21.3154 143.38 21.3154Z" fill="#7653FC"/>
<path d="M41 1.74391C41 1.0926 40.4622 0.564575 39.7988 0.564575C39.1355 0.564575 38.5977 1.0926 38.5977 1.74391C38.5977 3.02254 37.4609 4.10266 36.1152 4.10266H30.6968C27.6077 2.55891 24.0892 1.74399 20.5 1.74399C16.9108 1.74399 13.3923 2.55891 10.3032 4.10266H4.89942C3.54586 4.10274 2.40234 3.02254 2.40234 1.74391C2.40234 1.0926 1.86454 0.564575 1.20117 0.564575C0.537805 0.564575 0 1.0926 0 1.74391V5.28199C0 7.46997 0.88198 9.53176 2.48386 11.0935C0.856035 13.7063 0 16.569 0 19.4341C0 29.1884 9.19625 37.1241 20.5 37.1241C31.8037 37.1241 41 29.1884 41 19.4341C41 16.5734 40.1464 13.7145 38.523 11.1048C40.0529 9.61086 41 7.55205 41 5.28207V1.74391ZM20.5001 4.10274C22.4136 4.10274 24.3025 4.36093 26.0992 4.86026C24.7576 5.38813 23.5262 6.18253 22.474 7.21712C21.6723 8.00547 21.0131 8.89594 20.5074 9.85812C20.0017 8.89594 19.3425 8.00547 18.5407 7.21712C17.487 6.18096 16.2535 5.38577 14.9094 4.8579C16.7036 4.36015 18.5895 4.10274 20.5001 4.10274ZM20.5 23.682C20.9492 24.4139 21.5108 25.072 22.1611 25.6335L20.5 28.7097L18.8389 25.6335C19.4892 25.072 20.0508 24.4139 20.5 23.682ZM13.293 25.3308C9.98134 25.3308 7.28711 22.6855 7.28711 19.4341C7.28711 16.1827 9.98134 13.5374 13.293 13.5374C16.6046 13.5374 19.2988 16.1827 19.2988 19.4341C19.2988 22.6855 16.6046 25.3308 13.293 25.3308ZM21.7012 19.4341C21.7012 19.3403 21.704 19.2471 21.7084 19.1543C21.7167 19.098 21.7225 19.0407 21.7223 18.9821V18.9596C21.9695 15.9294 24.5582 13.5374 27.707 13.5374C31.0187 13.5374 33.7129 16.1827 33.7129 19.4341C33.7129 22.6855 31.0187 25.3308 27.707 25.3308C24.3954 25.3308 21.7012 22.6855 21.7012 19.4341ZM2.42621 5.80593C3.17278 6.23332 4.0212 6.4614 4.89942 6.4614H10.5791H10.585H10.8906C13.139 6.4614 15.2521 7.32169 16.8407 8.88376C18.1513 10.1725 18.9743 11.8112 19.2204 13.5847C17.8662 12.2618 16.0568 11.3883 14.0459 11.2122C13.956 11.1911 13.8626 11.1787 13.7661 11.1787H8.50286C7.1907 11.1787 5.97455 10.7755 4.97846 10.0916C4.91423 10.0187 4.84104 9.95168 4.7568 9.89421C4.70067 9.85592 4.64205 9.82424 4.58223 9.79648C3.3801 8.81952 2.57227 7.40322 2.42621 5.80593ZM38.5977 19.4341C38.5977 27.8878 30.4791 34.7654 20.5 34.7654C10.5209 34.7654 2.40234 27.8878 2.40234 19.4341C2.40234 17.0745 3.09582 14.7032 4.41687 12.5137C5.36259 13.0225 6.39808 13.3501 7.47769 13.4773C5.88062 14.9808 4.88477 17.0953 4.88477 19.4341C4.88477 23.9861 8.65668 27.6894 13.293 27.6894C14.5513 27.6894 15.7457 27.4161 16.8185 26.9277L19.4387 31.7799C19.6471 32.1656 20.0553 32.4068 20.5 32.4068C20.9447 32.4068 21.3529 32.1656 21.5613 31.7799L24.1815 26.9277C25.2543 27.4161 26.4488 27.6894 27.707 27.6894C32.3433 27.6894 36.1152 23.9861 36.1152 19.4341C36.1152 17.096 35.1199 14.982 33.5237 13.4785C34.6228 13.3509 35.6581 13.0185 36.5878 12.5214C37.9058 14.7088 38.5977 17.0775 38.5977 19.4341ZM36.3987 9.81543C36.3475 9.84051 36.2972 9.86811 36.2489 9.90105C36.1712 9.95404 36.1028 10.0151 36.042 10.0813C35.0456 10.7713 33.8271 11.1787 32.5117 11.1787H27.2484C27.1547 11.1787 27.0639 11.1902 26.9764 11.2102C24.9648 11.381 23.1538 12.2499 21.7964 13.5685C22.0453 11.8012 22.8673 10.1685 24.1739 8.88368C25.7625 7.32161 27.8756 6.46133 30.1239 6.46133H30.3957C30.3984 6.46133 30.401 6.46156 30.4037 6.46156C30.406 6.46156 30.4083 6.46133 30.4106 6.46133H36.1152C36.9885 6.46133 37.8315 6.23544 38.5732 5.81222C38.425 7.41753 37.6096 8.83918 36.3987 9.81543Z" fill="#7653FC"/>
<path d="M13.5 16.6835L14.5103 19.2744H17.7798L15.1347 20.8758L16.145 23.4667L13.5 21.8654L10.855 23.4667L11.8653 20.8758L9.22025 19.2744H12.4897L13.5 16.6835Z" fill="#7653FC"/>
<path d="M27.5 16.6835L28.5103 19.2744H31.7798L29.1347 20.8758L30.145 23.4667L27.5 21.8654L24.855 23.4667L25.8653 20.8758L23.2202 19.2744H26.4897L27.5 16.6835Z" fill="#7653FC"/>
</svg>
